<svg xmlns="http://www.w3.org/2000/svg" width="512" height="512" viewBox="0 0 512 512">
  <rect width="512" height="512" rx="96" fill="#e62429"/>
  <rect x="14" y="14" width="484" height="484" rx="84" fill="none" stroke="#18120e" stroke-width="20"/>
  <path d="M170-33L-3 1Q27-134 54-263L54-263Q65-315 76.50-374.50Q88-434 100-495Q112-556 122-610.50Q132-665 138-706L138-706Q178-718 224.50-728Q271-738 308-738L308-738Q368-738 403-712.50Q438-687 453-644Q468-601 468-550L468-550Q468-494 447.50-442.50Q427-391 392.50-350Q358-309 313.50-285Q269-261 221-261L221-261L210-261Q202-227 195-187Q188-147 183-113L183-113Q179-93 176-73Q173-53 170-33L170-33ZM230-366L230-366Q253-372 276-396.50Q299-421 314-459Q329-497 329-542L329-542Q329-579 312.50-598Q296-617 276-617L276-617Q265-551 254-492Q243-433 230-366Z" transform="translate(152.18 420.55) scale(0.4465)"
        fill="#ffffff" stroke="#18120e" stroke-width="24" paint-order="stroke"
        stroke-linejoin="round"/>
</svg>
